<svg xmlns="http://www.w3.org/2000/svg" width="1024" height="1024" viewBox="0 0 1024 1024" version="1.1"><path d="M 694.103 182.577 C 657.329 190.436, 658.559 190.083, 658.162 192.893 C 657.895 194.778, 659.738 197.218, 666.846 204.393 L 675.868 213.500 629.422 261 C 603.877 287.125, 578.181 313.584, 572.320 319.797 L 561.665 331.095 570.082 339.028 L 578.500 346.961 597.284 328.231 C 607.616 317.929, 633.716 291.399, 655.284 269.276 L 694.500 229.052 704.517 239.026 C 714.441 248.908, 716.704 250.266, 718.878 247.646 C 721.091 244.980, 725.230 180.911, 723.325 178.807 C 721.279 176.545, 723.911 176.206, 694.103 182.577 M 654.538 308.984 L 627.500 335.969 627 432.270 L 626.500 528.571 643 517.178 C 652.075 510.911, 665.919 501.232, 673.764 495.668 L 688.028 485.551 687.764 385.195 C 687.437 260.938, 692.058 271.538, 654.538 308.984 M 587.198 390.222 C 534.497 439.663, 541 422.790, 541 510.090 C 541 595.871, 533.236 589.604, 592.235 551.443 L 602.970 544.500 602.985 465.405 C 602.999 390.038, 602.914 386.232, 601.171 384.655 C 597.847 381.647, 595.224 382.692, 587.198 390.222 M 435.429 456.838 C 418.082 472.827, 419.773 472, 404.441 472 L 391.750 472 376.789 486.784 L 361.829 501.569 373.298 509.687 C 384.293 517.468, 384.809 517.715, 385.752 515.645 C 391.507 503.015, 404.635 495, 419.568 495 L 431.334 495 448.667 477.741 C 469.155 457.342, 469.093 457.487, 460.719 449.216 C 452.670 441.267, 452.154 441.423, 435.429 456.838 M 506.857 465.757 C 503.602 467.904, 469.366 498.934, 462.500 505.960 L 457.500 511.077 457.698 539.153 C 457.807 554.595, 458.032 567.347, 458.198 567.491 C 459.607 568.713, 487.643 585.832, 495.622 590.344 C 507.023 596.789, 510.885 598.173, 515.113 597.327 L 518.043 596.741 517.771 532.282 L 517.500 467.823 515.139 465.911 C 512.220 463.548, 510.260 463.512, 506.857 465.757" stroke="none" fill="#e1ab3b" fill-rule="evenodd"/><path d="M 495.191 184.078 C 403.846 192.010, 332.629 262.278, 323.988 353 C 323.282 360.415, 323.001 388.025, 323.197 430.734 L 323.500 496.968 327 500.394 C 338.784 511.929, 453.518 589.252, 487.190 608.351 C 509.225 620.849, 512.135 621.286, 526.057 614.176 C 557.787 597.972, 688.814 511.291, 700.250 498.939 C 708.959 489.532, 694.539 480.990, 683.332 488.918 C 614.151 537.851, 547.141 581.774, 522.966 594.032 C 511.321 599.936, 508.725 599.025, 472.005 576.152 C 439 555.594, 352.914 496.452, 345.148 489 L 341.500 485.500 342.068 416 C 342.744 333.410, 343.159 330.383, 358.111 299 C 404.667 201.285, 535.538 171.583, 619.250 239.732 L 626.001 245.227 632.484 238.364 L 638.967 231.500 633.734 226.665 C 601.754 197.122, 545.197 179.737, 495.191 184.078 M 491.286 252.397 C 456.054 263.860, 452.347 313.160, 485.498 329.371 C 520.684 346.578, 558.096 308.925, 540.734 273.780 C 531.868 255.833, 509.909 246.337, 491.286 252.397 M 448.500 344.339 C 439.801 347.221, 436.601 350.198, 383.279 405.034 C 365.932 422.874, 365.204 425.080, 373.082 435.954 C 382.815 449.391, 386.386 448.077, 415 420.527 C 444.220 392.393, 438.161 392.061, 471.540 423.626 C 496.238 446.982, 492.016 447.974, 531.642 409.500 C 547.502 394.100, 562.589 379.460, 565.166 376.966 C 572.766 369.615, 572.656 363.435, 564.767 354.472 C 551.736 339.669, 545.050 340.661, 524 360.517 C 517.125 367.003, 510.063 373.653, 508.307 375.296 L 505.113 378.282 489.057 363.085 C 468.893 344, 460.807 340.262, 448.500 344.339 M 584.110 635.396 C 579.301 638.061, 577.491 645.400, 580.561 649.783 C 587.110 659.133, 604 655.094, 604 644.177 C 604 636.242, 592.079 630.978, 584.110 635.396 M 669.960 634.750 C 669.938 635.163, 669.955 643.938, 669.998 654.250 C 670.080 673.716, 669.862 674.611, 666.047 670.550 C 647.824 651.153, 615 670.411, 615 700.500 C 615 729.837, 647.186 749.142, 665.869 731.011 L 670 727.002 670 731.501 L 670 736 680 736 L 690 736 690 685 L 690 634 680 634 C 674.500 634, 669.982 634.337, 669.960 634.750 M 175.040 688.500 L 175.055 736 185.527 736 L 196 736 196 688.500 L 196 641 185.513 641 L 175.025 641 175.040 688.500 M 531 655 L 531 665 525.500 665 L 520 665 520 672.500 C 520 676.625, 519.888 680.337, 519.750 680.750 C 519.612 681.163, 522.087 681.635, 525.250 681.800 L 531 682.100 531.022 702.300 C 531.056 733.318, 534.992 738.455, 557.387 736.715 C 568.225 735.873, 568 736.084, 568 726.786 C 568 719.659, 567.814 718.857, 566.295 719.440 C 560.965 721.486, 556.368 721.221, 553.434 718.699 L 550.500 716.178 550.185 699.129 L 549.869 682.080 558.685 681.790 L 567.500 681.500 567.790 673.250 L 568.081 665 559.040 665 L 550 665 550 655 L 550 645 540.500 645 L 531 645 531 655 M 246.727 664.360 C 244.101 665.098, 240.164 667.141, 237.977 668.898 L 234 672.094 234 668.547 L 234 665 224 665 L 214 665 214 700.500 L 214 736 224 736 L 234 736 234 714.468 C 234 687.483, 235.488 683.312, 245.804 681.377 C 258.570 678.982, 261 684.076, 261 713.234 L 261 736 271.073 736 L 281.145 736 280.812 709.250 C 280.447 679.837, 280.254 678.775, 273.970 671.618 C 267.651 664.421, 256.791 661.528, 246.727 664.360 M 397.270 663.998 C 363.433 671.126, 357.725 719.440, 388.911 734.755 C 397.376 738.912, 414.835 738.851, 423.156 734.634 C 428.239 732.058, 438.033 723.570, 436.938 722.690 C 436.697 722.497, 433.572 720.727, 429.994 718.757 L 423.488 715.175 420.297 718.026 C 410.276 726.980, 391.199 722.477, 389.329 710.717 L 388.727 706.933 414.277 707.217 L 439.826 707.500 440.417 703.801 C 444.288 679.563, 421.811 658.828, 397.270 663.998 M 474 663.999 C 453.278 667.518, 444.477 686.116, 457.574 698.710 C 462.020 702.986, 462.884 703.332, 484.720 709.588 C 493.371 712.066, 495.337 716.189, 489.824 720.289 C 483.967 724.646, 472.588 723.434, 467.014 717.860 L 464.029 714.875 456.765 717.146 C 452.769 718.395, 449.354 719.506, 449.176 719.615 C 448.266 720.174, 452.364 726.112, 455.653 729 C 474.039 745.143, 509.443 737.993, 511.733 717.675 C 513.314 703.649, 507.354 697.908, 485.166 692.087 C 472.405 688.739, 471 687.927, 471 683.901 C 471 675.690, 488.608 675.338, 494.646 683.428 L 496.500 685.911 502.918 683.206 C 514.523 678.313, 505.039 666.997, 486.862 664.047 C 479.880 662.914, 480.378 662.916, 474 663.999 M 732.166 664.483 C 692.639 673.379, 693.448 728.611, 733.230 737.143 C 760.966 743.091, 785.481 718.138, 778.587 690.974 C 773.610 671.361, 753.245 659.739, 732.166 664.483 M 822.813 664.582 C 819.666 665.550, 817.119 667.245, 815.063 669.740 L 812 673.456 812 669.228 L 812 665 802.393 665 C 794.044 665, 792.865 665.207, 793.393 666.582 C 793.727 667.452, 794 683.427, 794 702.082 L 794 736 803.430 736 L 812.860 736 813.180 714.250 C 813.600 685.695, 816.177 681.205, 831.584 682.186 L 838 682.595 838 673.414 C 838 662.187, 835.438 660.697, 822.813 664.582 M 291.560 673.750 C 293.437 678.563, 299.608 694.425, 305.275 709 L 315.579 735.500 326.539 735.756 L 337.500 736.011 350.697 702.256 C 357.955 683.690, 364.191 667.712, 364.554 666.750 C 365.156 665.153, 364.304 665, 354.824 665 L 344.433 665 335.967 690.967 C 325.782 722.205, 328.027 722.201, 317.942 691 L 309.539 665 298.844 665 L 288.149 665 291.560 673.750 M 582 700.500 L 582 736 592 736 L 602 736 602 700.500 L 602 665 592 665 L 582 665 582 700.500 M 398.741 680.429 C 393.704 682.227, 392.014 683.763, 389.910 688.456 C 387.419 694.011, 387.391 694, 404.690 694 L 420.262 694 419.668 690.344 C 418.265 681.697, 408.351 677, 398.741 680.429 M 645.421 682.896 C 638.179 686.186, 634.336 693.762, 635.228 702.993 C 637.316 724.607, 665.928 726.602, 669.914 705.412 C 673.074 688.611, 659.769 676.380, 645.421 682.896 M 731.575 683.210 C 718.949 690.575, 720.299 712.882, 733.718 718.623 C 754.653 727.581, 770.213 697.325, 751.718 683.623 C 747.399 680.423, 736.728 680.205, 731.575 683.210 M 553.110 758.338 C 547.498 761.584, 546.509 768.300, 550.918 773.234 C 557.206 780.272, 571 775.990, 571 767 C 571 759.799, 559.887 754.418, 553.110 758.338 M 191.798 763.931 C 148.072 777.912, 149.424 842.978, 193.680 854.505 C 211.953 859.264, 235.532 851.509, 243.255 838.199 L 245.010 835.174 237.755 830.837 L 230.500 826.500 225.850 831.193 C 208.186 849.021, 179 835.195, 179 809 C 179 782.187, 208.596 768.962, 226.283 787.871 L 230.780 792.679 237.873 788.241 C 245.965 783.177, 245.965 783.172, 238.695 775.285 C 227.948 763.625, 207.919 758.776, 191.798 763.931 M 744 778 L 744 787 739 787 L 734 787 734 795 L 734 803 739 803 L 744 803 744.006 820.750 C 744.015 850.421, 747.894 855.911, 768.039 854.762 C 779.218 854.125, 779 854.312, 779 845.374 C 779 838.075, 778.938 837.885, 776.783 838.569 C 764.998 842.309, 762.015 837.811, 762.006 816.290 L 762 803.081 770.250 802.790 L 778.500 802.500 778.792 794.750 L 779.084 787 770.471 787 L 761.858 787 762.179 777.998 L 762.500 768.995 753.250 768.998 L 744 769 744 778 M 280.120 786.127 C 244.353 792.068, 240.167 842.701, 274.500 854.099 C 309.023 865.561, 337.439 825.428, 314.565 797.514 C 309.325 791.119, 292.318 783.743, 286 785.124 C 285.725 785.185, 283.079 785.636, 280.120 786.127 M 368.500 785.652 C 362.662 787.048, 359.496 788.504, 356.414 791.209 L 353 794.207 353 790.604 L 353 787 344 787 L 335 787 334.998 820.750 L 334.995 854.500 343.998 854.179 L 353 853.858 353.056 833.679 C 353.131 806.900, 354.603 803.242, 365.676 802.318 C 377.376 801.342, 378.996 805.043, 378.998 832.750 L 379 854 388 854 L 397 854 396.978 829.250 C 396.954 802.065, 396.431 799.248, 390.191 792.658 C 385.257 787.449, 374.934 784.114, 368.500 785.652 M 428.297 786.049 C 413.497 788.973, 405.077 802.394, 410.894 813.790 C 414.339 820.541, 419.670 823.609, 434.502 827.375 C 445.413 830.146, 448.635 832.332, 447.642 836.290 C 445.788 843.676, 427.620 843.613, 422.429 836.202 C 421.244 834.511, 408.698 836.969, 406.306 839.361 C 406.127 839.540, 407.558 841.753, 409.487 844.279 C 422.897 861.842, 459.585 858.561, 464.928 839.321 C 468.846 825.212, 461.611 817.687, 438.632 811.968 C 429.893 809.793, 427 807.911, 427 804.402 C 427 796.857, 445.843 797.233, 449.924 804.858 C 450.953 806.782, 451.115 806.765, 457.492 804.075 C 465.865 800.542, 465.651 801.021, 461.139 795.895 C 453.565 787.291, 441.032 783.534, 428.297 786.049 M 501.871 785.998 C 468.621 791.756, 462.307 838.555, 492.852 852.847 C 506.423 859.196, 524.709 855.679, 534.448 844.847 C 539.799 838.895, 539.813 838.938, 531.012 834.506 L 524.173 831.062 520.287 834.948 C 508.691 846.544, 492.566 838.444, 492.520 821 C 492.471 802.718, 511.261 794.527, 521.643 808.305 L 523.500 810.769 531.307 806.844 L 539.114 802.920 536.216 798.979 C 528.846 788.957, 515.001 783.724, 501.871 785.998 M 608 786.361 C 575.985 793.650, 570.687 838.960, 600.253 852.615 C 615 859.426, 638.970 854.267, 645.010 842.981 C 646.332 840.510, 635.539 834.092, 633.052 835.869 C 619.913 845.263, 603.386 842.162, 600.437 829.750 L 599.783 827 624.312 827 L 648.841 827 649.450 824.230 C 654.335 801.987, 631.401 781.034, 608 786.361 M 695.500 785.644 C 689.588 787.081, 686.492 788.507, 683.414 791.209 L 680 794.207 680 790.604 L 680 787 671 787 L 662 787 662 820.500 L 662 854 671 854 L 680 854 680.056 833.750 C 680.130 807.331, 681.494 803.682, 691.818 802.298 C 703.615 800.715, 705.412 804.551, 705.819 832.181 L 706.138 853.862 715.072 854.181 L 724.005 854.500 724.002 830.932 C 723.999 794.379, 715.449 780.795, 695.500 785.644 M 816 785.999 C 783.554 791.509, 777.147 838.247, 806.857 852.701 C 819.718 858.958, 837.486 856.238, 848.003 846.401 L 853.071 841.660 846.785 838.007 L 840.500 834.354 836.972 837.166 C 828.364 844.027, 814.184 842.270, 808.956 833.696 C 804.770 826.830, 804.193 827, 831.639 827 L 856.277 827 855.765 818.019 C 854.756 800.312, 845.264 789.184, 828.535 786.091 C 822.089 784.899, 822.461 784.902, 816 785.999 M 551 820.500 L 551 854 560 854 L 569 854 569 820.500 L 569 787 560 787 L 551 787 551 820.500 M 609 801.706 C 605.481 802.993, 600 809.840, 600 812.950 C 600 813.637, 605.194 814, 615 814 C 631.711 814, 632.033 813.832, 628.483 806.967 C 625.910 801.991, 615.737 799.244, 609 801.706 M 813.299 802.960 C 810.082 804.921, 807 809.564, 807 812.450 C 807 813.781, 809.122 814, 822.019 814 L 837.038 814 836.421 811.250 C 834.347 802.013, 822.070 797.611, 813.299 802.960 M 277.984 803.852 C 264.699 810.912, 267.263 835.895, 281.548 838.575 C 295.452 841.183, 304.371 833.447, 303.772 819.301 C 303.168 805.066, 290.256 797.331, 277.984 803.852" stroke="none" fill="#143751" fill-rule="evenodd"/></svg>