<svg xmlns="http://www.w3.org/2000/svg" width="1024" height="1024" viewBox="300 173 450 450" version="1.1"><path d="M 694.103 182.577 C 657.329 190.436, 658.559 190.083, 658.162 192.893 C 657.895 194.778, 659.738 197.218, 666.846 204.393 L 675.868 213.500 629.422 261 C 603.877 287.125, 578.181 313.584, 572.320 319.797 L 561.665 331.095 570.082 339.028 L 578.500 346.961 597.284 328.231 C 607.616 317.929, 633.716 291.399, 655.284 269.276 L 694.500 229.052 704.517 239.026 C 714.441 248.908, 716.704 250.266, 718.878 247.646 C 721.091 244.980, 725.230 180.911, 723.325 178.807 C 721.279 176.545, 723.911 176.206, 694.103 182.577 M 654.538 308.984 L 627.500 335.969 627 432.270 L 626.500 528.571 643 517.178 C 652.075 510.911, 665.919 501.232, 673.764 495.668 L 688.028 485.551 687.764 385.195 C 687.437 260.938, 692.058 271.538, 654.538 308.984 M 587.198 390.222 C 534.497 439.663, 541 422.790, 541 510.090 C 541 595.871, 533.236 589.604, 592.235 551.443 L 602.970 544.500 602.985 465.405 C 602.999 390.038, 602.914 386.232, 601.171 384.655 C 597.847 381.647, 595.224 382.692, 587.198 390.222 M 435.429 456.838 C 418.082 472.827, 419.773 472, 404.441 472 L 391.750 472 376.789 486.784 L 361.829 501.569 373.298 509.687 C 384.293 517.468, 384.809 517.715, 385.752 515.645 C 391.507 503.015, 404.635 495, 419.568 495 L 431.334 495 448.667 477.741 C 469.155 457.342, 469.093 457.487, 460.719 449.216 C 452.670 441.267, 452.154 441.423, 435.429 456.838 M 506.857 465.757 C 503.602 467.904, 469.366 498.934, 462.500 505.960 L 457.500 511.077 457.698 539.153 C 457.807 554.595, 458.032 567.347, 458.198 567.491 C 459.607 568.713, 487.643 585.832, 495.622 590.344 C 507.023 596.789, 510.885 598.173, 515.113 597.327 L 518.043 596.741 517.771 532.282 L 517.500 467.823 515.139 465.911 C 512.220 463.548, 510.260 463.512, 506.857 465.757" stroke="none" fill="#e1ab3b" fill-rule="evenodd"/><path d="M 495.191 184.078 C 403.846 192.010, 332.629 262.278, 323.988 353 C 323.282 360.415, 323.001 388.025, 323.197 430.734 L 323.500 496.968 327 500.394 C 338.784 511.929, 453.518 589.252, 487.190 608.351 C 509.225 620.849, 512.135 621.286, 526.057 614.176 C 557.787 597.972, 688.814 511.291, 700.250 498.939 C 708.959 489.532, 694.539 480.990, 683.332 488.918 C 614.151 537.851, 547.141 581.774, 522.966 594.032 C 511.321 599.936, 508.725 599.025, 472.005 576.152 C 439 555.594, 352.914 496.452, 345.148 489 L 341.500 485.500 342.068 416 C 342.744 333.410, 343.159 330.383, 358.111 299 C 404.667 201.285, 535.538 171.583, 619.250 239.732 L 626.001 245.227 632.484 238.364 L 638.967 231.500 633.734 226.665 C 601.754 197.122, 545.197 179.737, 495.191 184.078 M 491.286 252.397 C 456.054 263.860, 452.347 313.160, 485.498 329.371 C 520.684 346.578, 558.096 308.925, 540.734 273.780 C 531.868 255.833, 509.909 246.337, 491.286 252.397 M 448.500 344.339 C 439.801 347.221, 436.601 350.198, 383.279 405.034 C 365.932 422.874, 365.204 425.080, 373.082 435.954 C 382.815 449.391, 386.386 448.077, 415 420.527 C 444.220 392.393, 438.161 392.061, 471.540 423.626 C 496.238 446.982, 492.016 447.974, 531.642 409.500 C 547.502 394.100, 562.589 379.460, 565.166 376.966 C 572.766 369.615, 572.656 363.435, 564.767 354.472 C 551.736 339.669, 545.050 340.661, 524 360.517 C 517.125 367.003, 510.063 373.653, 508.307 375.296 L 505.113 378.282 489.057 363.085 C 468.893 344, 460.807 340.262, 448.500 344.339 M 584.110 635.396 C 579.301 638.061, 577.491 645.400" stroke="none" fill="#143751" fill-rule="evenodd"/></svg>